<?xml version="1.0"?>
<svg version="1.1" xmlns="http://www.w3.org/2000/svg" width="155" height="61" style=""><path fill="#ffffff" d="M29.04052734375,38.5859375l6.70166015625-13.2275390625l7.3388671875,0l-10.65673828125,19.62158203125l0,12.50244140625l-6.767578125,0l0-12.28271484375l-10.65673828125-19.84130859375l7.3828125,0z M69.882641601562,57.482421875l-2.3291015625-7.646484375l-11.71142578125,0l-2.3291015625,7.646484375l-7.3388671875,0l11.337890625-32.255859375l8.32763671875,0l11.3818359375,32.255859375l-7.3388671875,0z M65.927563476562,44.123046875q-3.22998046875-10.39306640625-3.636474609375-11.75537109375t-0.582275390625-2.1533203125q-0.72509765625,2.8125-4.15283203125,13.90869140625l8.37158203125,0z M103.31997070312,48.5615234375q0,4.3505859375-3.131103515625,6.85546875t-8.712158203125,2.5048828125q-5.1416015625,0-9.0966796875-1.93359375l0-6.328125q3.251953125,1.4501953125,5.504150390625,2.04345703125t4.119873046875,0.59326171875q2.2412109375,0,3.438720703125-0.85693359375t1.197509765625-2.548828125q0-0.94482421875-0.52734375-1.680908203125t-1.549072265625-1.417236328125t-4.163818359375-2.17529296875q-2.9443359375-1.38427734375-4.41650390625-2.65869140625t-2.35107421875-2.96630859375t-0.87890625-3.955078125q0-4.2626953125,2.889404296875-6.70166015625t7.987060546875-2.43896484375q2.5048828125,0,4.779052734375,0.59326171875t4.757080078125,1.669921875l-2.197265625,5.29541015625q-2.57080078125-1.0546875-4.251708984375-1.47216796875t-3.306884765625-0.41748046875q-1.93359375,0-2.96630859375,0.90087890625t-1.03271484375,2.35107421875q0,0.90087890625,0.41748046875,1.571044921875t1.329345703125,1.29638671875t4.317626953125,2.252197265625q4.50439453125,2.1533203125,6.17431640625,4.317626953125t1.669921875,5.306396484375z M131.90134277344,57.482421875l-2.3291015625-7.646484375l-11.71142578125,0l-2.3291015625,7.646484375l-7.3388671875,0l11.337890625-32.255859375l8.32763671875,0l11.3818359375,32.255859375l-7.3388671875,0z M127.94626464844,44.123046875q-3.22998046875-10.39306640625-3.636474609375-11.75537109375t-0.582275390625-2.1533203125q-0.72509765625,2.8125-4.15283203125,13.90869140625l8.37158203125,0z"/><path fill="#" d=""/></svg>
